<?xml version="1.0" encoding="utf-8"?>
<!-- Generator: Adobe Illustrator 17.1.0, SVG Export Plug-In . SVG Version: 6.00 Build 0)  -->
<!DOCTYPE svg PUBLIC "-//W3C//DTD SVG 1.1//EN" "http://www.w3.org/Graphics/SVG/1.1/DTD/svg11.dtd">
<svg version="1.1" id="Layer_1" xmlns="http://www.w3.org/2000/svg" xmlns:xlink="http://www.w3.org/1999/xlink" x="0px" y="0px"
	 viewBox="0 0 28.4 28.4" enable-background="new 0 0 28.4 28.4" xml:space="preserve">
<g>
	<path fill="#E3A4A1" d="M28,14.1c0,1.9,0,4,0,5.9c0,1.1-0.1,2.2-0.6,3.2c-1.3,2.9-3.4,4.6-6.5,5c-0.3,0.1-0.7,0.1-1.1,0.1
		c-3.7,0-7.5,0-11.2,0c-1.6,0-3.2-0.4-4.5-1.4c-2.1-1.4-3.3-3.4-3.5-5.9c0-0.2,0-0.4,0-0.6c0-4.2,0-8.3,0-12.5c0-3.1,2-6.1,5-7.3
		C6.4,0.2,7.4,0,8.5,0c3.7,0,7.6,0,11.3,0c4.1,0,7.4,2.9,8,7C28,7.4,28,7.8,28,8.2C28,10.2,28,12.2,28,14.1L28,14.1z M2.4,14.1
		L2.4,14.1c0,1.9,0,4,0,5.9c0,0.3,0,0.6,0.1,1.1c0.3,2.9,2.9,5.1,5.8,5.2c3.9,0,7.8,0,11.7,0c3.2,0,5.9-2.7,5.9-6
		c0-4.1,0-8.1,0-12.2c0-0.2,0-0.3,0-0.5c-0.2-3-2.8-5.5-5.9-5.5c-3.9,0-7.8,0-11.7,0C7,2.1,5.8,2.6,4.8,3.3C3.3,4.5,2.4,6.2,2.4,8.2
		C2.4,10.2,2.4,12.2,2.4,14.1z"/>
	<path fill="#E3A4A1" d="M14.2,21.6c-3.7,0-7.1-2.9-7.5-6.6C6.3,11.8,8,8.8,10.8,7.3c1.2-0.6,2.5-0.9,3.7-0.7
		c1.4,0.1,2.7,0.4,3.9,1.2c1.7,1.1,2.7,2.6,3.1,4.5c0.5,2.6,0,4.8-1.7,6.8C18.3,20.8,16.3,21.6,14.2,21.6z M14.2,19.1
		c1.2,0,2.4-0.4,3.2-1.2c1.5-1.4,2-3.1,1.7-5c-0.2-1.3-0.9-2.4-1.9-3c-1.3-0.7-2.6-1-4-0.6c-2.5,0.3-4.2,2.6-4.1,5
		C9.3,17,11.5,19.1,14.2,19.1z"/>
	<path fill="#E3A4A1" d="M21.9,8.1c-1,0-1.7-0.7-1.7-1.7s0.7-1.7,1.7-1.7s1.7,0.7,1.7,1.7S22.8,8.1,21.9,8.1z"/>
</g>
</svg>
