<?xml version="1.0" encoding="utf-8"?>
<!-- Generator: Adobe Illustrator 17.1.0, SVG Export Plug-In . SVG Version: 6.00 Build 0)  -->
<!DOCTYPE svg PUBLIC "-//W3C//DTD SVG 1.1//EN" "http://www.w3.org/Graphics/SVG/1.1/DTD/svg11.dtd">
<svg version="1.1" id="Layer_1" xmlns="http://www.w3.org/2000/svg" xmlns:xlink="http://www.w3.org/1999/xlink" x="0px" y="0px"
	 viewBox="2.1 96.7 274.8 87" enable-background="new 2.1 96.7 274.8 87" xml:space="preserve">
<g>
	<polygon fill="#010101" points="13.7,154 2.1,154 2.1,153.4 7.5,153.4 7.5,119.8 2.1,119.8 2.1,119.2 13.1,119.2 22.1,145.5 
		22.2,145.5 31.4,119.2 42.2,119.2 42.2,119.8 36.7,119.8 36.7,153.4 42.2,153.4 42.2,154 26.4,154 26.4,153.4 31.8,153.4 
		31.8,120.1 31.7,120.1 20.1,154.1 8.4,120.5 8.3,120.5 8.3,153.4 13.7,153.4 	"/>
	<polygon fill="#010101" points="63.3,153.4 57.8,153.4 57.8,119.8 63.3,119.8 63.3,119.2 47.5,119.2 47.5,119.8 52.9,119.8 
		52.9,153.4 47.5,153.4 47.5,154 63.3,154 	"/>
	<path fill="#010101" d="M90.2,136.5c-0.9-0.6-1.8-1.1-2.8-1.4c-1-0.3-1.7-0.6-2.4-0.8l-5.9-1.9c-0.9-0.3-1.7-0.6-2.6-1
		s-1.6-0.8-2.3-1.2c-0.7-0.5-1.2-1.1-1.6-1.9c-0.4-0.8-0.7-1.6-0.7-2.7c0-1.3,0.3-2.4,0.9-3.2c0.6-0.9,1.2-1.5,2-2.1
		c0.9-0.5,1.7-0.9,2.7-1.1c1-0.2,1.8-0.3,2.6-0.3c1.4,0,2.7,0.3,3.7,0.8c1,0.5,2,1.1,2.8,2c0.8,0.9,1.3,1.8,1.8,2.9
		c0.5,1,0.9,2.2,1,3.4H90v-8.8h-0.7c-0.3,0.5-0.5,0.8-0.6,0.9c-0.2,0.1-0.5,0.2-0.9,0.2c-0.5,0-1-0.1-1.3-0.3
		c-0.5-0.2-1-0.4-1.5-0.7c-0.6-0.3-1.2-0.5-2-0.7s-1.7-0.3-2.9-0.3c-1.5,0-3,0.3-4.4,0.8c-1.3,0.5-2.5,1.2-3.4,2.2
		c-1,1-1.7,2-2.2,3.2c-0.5,1.2-0.8,2.7-0.8,4.1c0,2.3,0.7,4.1,2,5.4s3.3,2.4,6,3.2l5.6,1.7c0.7,0.2,1.4,0.5,2.2,0.9
		c0.8,0.4,1.5,0.9,2.1,1.4c0.7,0.6,1.2,1.2,1.6,2.1c0.4,0.9,0.7,1.8,0.7,2.9c0,0.8-0.1,1.6-0.4,2.6s-0.8,1.8-1.3,2.6
		c-0.7,0.8-1.5,1.4-2.7,2c-1.1,0.6-2.6,0.8-4.3,0.8c-0.7,0-1.3,0-2-0.1c-0.7-0.1-1.4-0.2-2.2-0.4c-0.8-0.2-1.5-0.5-2.3-1
		c-0.8-0.4-1.4-1-2.2-1.8c-0.7-0.8-1.3-1.8-1.9-2.9c-0.6-1.2-1-2.7-1.4-4.5h-0.6v10.5h0.8c0.1-0.3,0.3-0.6,0.5-0.8
		c0.2-0.2,0.5-0.3,1-0.3c0.6,0,1.2,0.1,2,0.4c0.8,0.3,1.4,0.5,2.1,0.7c0.6,0.2,1,0.3,1.5,0.4c0.5,0.1,1,0.2,1.3,0.2
		c0.5,0.1,1,0.1,1.4,0.1c0.6,0,1.1,0,1.8,0c1.9,0,3.6-0.3,5.2-1c1.5-0.7,2.9-1.5,3.9-2.6c1-1,1.9-2.3,2.5-3.7
		c0.6-1.4,0.9-2.9,0.9-4.4c0-1.7-0.3-3-1-4.1C91.9,138,91,137.1,90.2,136.5z"/>
	<path fill="#010101" d="M121.6,136.5c-0.9-0.7-1.8-1.1-2.8-1.4c-1-0.3-1.7-0.6-2.4-0.8l-5.9-1.9c-0.9-0.3-1.7-0.6-2.6-1
		s-1.6-0.8-2.3-1.2c-0.7-0.5-1.2-1.1-1.6-1.9c-0.4-0.8-0.7-1.6-0.7-2.7c0-1.3,0.3-2.4,0.9-3.2c0.6-0.9,1.2-1.5,2-2.1
		c0.9-0.5,1.7-0.9,2.7-1.1c1-0.2,1.8-0.3,2.6-0.3c1.4,0,2.7,0.3,3.7,0.8c1,0.5,2,1.1,2.8,2c0.8,0.9,1.3,1.8,1.8,2.9
		c0.5,1,0.9,2.2,1,3.4h0.6v-8.8h-0.7c-0.3,0.5-0.5,0.8-0.6,0.9c-0.2,0.1-0.5,0.2-0.9,0.2c-0.5,0-1-0.1-1.3-0.3
		c-0.5-0.2-1-0.4-1.5-0.7c-0.6-0.3-1.2-0.5-2-0.7c-0.8-0.2-1.7-0.3-2.9-0.3c-1.6,0-3,0.3-4.4,0.8c-1.3,0.5-2.5,1.2-3.4,2.2
		c-1,1-1.7,2-2.2,3.2c-0.5,1.2-0.8,2.7-0.8,4.1c0,2.3,0.7,4.1,2,5.4c1.3,1.3,3.3,2.4,6,3.2l5.6,1.7c0.7,0.2,1.4,0.5,2.2,0.9
		c0.8,0.4,1.5,0.9,2.1,1.4c0.7,0.6,1.2,1.2,1.6,2.1s0.7,1.8,0.7,2.9c0,0.8-0.1,1.6-0.4,2.6c-0.3,1-0.8,1.8-1.3,2.6
		c-0.7,0.8-1.5,1.4-2.7,2c-1.1,0.6-2.6,0.8-4.3,0.8c-0.7,0-1.2,0-2-0.1c-0.7,0-1.4-0.2-2.2-0.4c-0.8-0.2-1.5-0.5-2.3-1
		c-0.8-0.4-1.4-1-2.2-1.8c-0.7-0.8-1.3-1.8-1.9-2.9c-0.6-1.2-1-2.7-1.4-4.5h-0.6v10.5h0.8c0.1-0.3,0.3-0.6,0.5-0.8
		c0.2-0.2,0.5-0.3,1-0.3c0.6,0,1.2,0.1,2,0.4c0.8,0.3,1.4,0.5,2.1,0.7c0.6,0.2,1,0.3,1.5,0.4c0.5,0.1,1,0.2,1.3,0.2
		c0.5,0.1,1,0.1,1.4,0.1c0.6,0,1.1,0,1.8,0c1.9,0,3.6-0.3,5.2-1c1.5-0.7,2.9-1.5,3.9-2.6s1.9-2.3,2.5-3.7c0.6-1.4,0.9-2.9,0.9-4.4
		c0-1.7-0.3-3-1-4.1C123.2,138,122.5,137.1,121.6,136.5z"/>
	<path fill="#010101" d="M167.4,150.6c-1.6,1.8-3.9,2.7-6.7,2.7h-8.7v-33.4h5.4v-0.7h-15.8v0.7h5.4v33.5h-5.4v0.7h29.9v-10.7H171
		C170.3,146.4,169,148.9,167.4,150.6z"/>
	<path fill="#010101" d="M176.6,143c0,4,1,6.9,3.1,8.8c2.1,1.9,5,2.9,9,2.9c2.6,0,4.7-0.4,6.2-1c1.6-0.8,2.8-1.6,3.7-2.9
		s1.5-2.4,1.8-3.5c0.3-1.1,0.5-2.4,0.5-3.7v-23.8h5.4v-0.7h-11.6v0.7h5.4v22.8c0,1.1-0.1,2.2-0.2,2.9c-0.1,0.8-0.3,1.5-0.4,2.1
		c-0.2,0.6-0.4,1-0.7,1.5c-0.3,0.4-0.6,0.9-0.9,1.2c-1,1.3-2.2,2.3-3.6,2.9c-1.4,0.6-3,0.9-4.8,0.9c-1.3,0-2.5-0.2-3.5-0.6
		c-1-0.4-1.9-1-2.6-1.8c-0.7-0.9-1.2-1.9-1.5-3.3c-0.4-1.3-0.5-3-0.5-4.9v-23.7h5.4v-0.7H171v0.7h5.4L176.6,143L176.6,143z"/>
	<path fill="#010101" d="M223.6,137l0.4,0.7l0.3,0.6l-8.3,13.3c0,0-2,3-4,5c-3.9,4.1-7.3,5.6-9.5,4.4c-0.7-0.4-1-0.9-0.9-1.3
		c0-0.2,0.1-0.4,0.3-0.6c0.1,0.4,0.4,0.6,0.7,0.6c0.4,0,0.8-0.3,0.8-0.8c0,0,0,0,0-0.1c0.1-0.1,0.1-0.3,0-0.4
		c-0.3-0.4-0.8-0.6-1.2-0.5c-0.7,0.2-1.1,0.8-1.2,1.5c-0.1,0.9,0.4,1.6,1.3,2.2c0.6,0.3,1.2,0.6,2.2,0.6c1.9,0,4.7-1.1,8.5-5
		c1.7-1.8,3.4-4.3,3.9-4.9c-0.4,1.3-0.5,2.7-0.1,3.7c0.5,1.3,1.3,1.9,1.9,2.2c0.4,0.1,0.7,0.2,1,0.2c0.6,0,1-0.1,1.5-0.4
		c1-0.5,1.5-1.4,1.4-2.4c-0.1-0.7-0.5-1-1-1.2c-0.1,0-0.1,0-0.2,0l0,0c-0.4,0-0.8,0.3-0.8,0.8c0,0.4,0.3,0.8,0.8,0.8
		c0.2,0,0.4-0.1,0.6-0.2v0.1c0.1,0.6-0.3,1.3-1,1.7c-0.7,0.4-1.4,0.4-2,0.2c-0.7-0.3-1.2-0.9-1.5-1.8c-0.7-1.9,0.7-5,1.6-6.8
		l6.1-9.8l8.7,14.3h-4.7v0.7h14.7v-0.7h-4.4l-11.7-19.1l9.2-14.8c0.1-0.1,0.7-0.9,1.3-2.2c1-1.3,2.5-3.4,4.7-5.7
		c3.8-3.9,7.3-4.3,9.1-2.9c1,0.8,1,1.6,0.8,2.2c-0.1-0.2-0.3-0.3-0.6-0.3c-0.4,0-0.8,0.3-0.8,0.8c0,0.3,0.2,0.6,0.5,0.7l0,0
		c0.1,0,0.1,0,0.2,0l0,0l0,0c0.4,0,0.8-0.3,1-0.8c0.5-0.8,0.5-2.1-0.9-3.1c-2.1-1.6-5.9-1.2-10,2.9c-1,1.1-2,2.2-2.8,3.1
		c1.1-2.9,2.1-6.8,1.1-10.6c-1.1-4.4-5-6.7-8.4-6.9c-3.5-0.3-6.5,1.4-7.9,4.6c-1.7,3.9-0.3,6.8,1.6,8.4c1.9,1.5,4.3,1.8,5.7,0.7
		c1.4-1,1.4-2.1,1.3-2.7c-0.1-0.9-0.8-1.6-1.6-1.9c-0.6-0.2-1.1-0.1-1.5,0.3c-0.1,0.1-0.2,0.3-0.1,0.5v0.1c0,0.4,0.3,0.8,0.8,0.8
		c0.4,0,0.7-0.3,0.8-0.7c0.4,0.2,0.9,0.7,1,1.2c0.1,0.7-0.3,1.3-1,1.9c-1.1,0.9-3.1,0.6-4.7-0.7c-0.9-0.7-3.3-3-1.4-7.4
		c1.2-2.8,3.9-4.3,7-4.1c3,0.3,6.7,2.3,7.6,6.4c1.8,7.2-3.7,15-3.7,15.1l-9,14.5l0,0l-0.5-0.7l-7.8-12.9h4.7v-0.7h-14.5v0.7h4.1
		L223.6,137z"/>
	<path fill="#010101" d="M276.2,143.3c-0.1,0.8-0.3,1.7-0.7,2.9s-1,2.3-1.7,3.3s-1.7,2-2.9,2.8c-1.2,0.8-2.7,1.1-4.5,1.1h-9.2v-17.7
		h4c1.1,0,2.1,0.2,2.9,0.6c0.8,0.4,1.3,1,1.8,1.6s0.8,1.4,1,2.4c0.3,0.9,0.5,1.8,0.7,2.8h0.6v-15.2h-0.6c-0.4,1.4-0.8,2.7-1.1,3.6
		c-0.4,1-0.9,1.7-1.3,2.2c-0.6,0.6-1.1,1-1.9,1.1s-1.7,0.3-2.8,0.3h-3.1v-15.2h8.2c1.3,0,2.5,0.2,3.4,0.5c1,0.3,1.8,0.9,2.5,1.5
		s1.2,1.5,1.8,2.5c0.5,1,1,2.1,1.3,3.3h0.6v-8.5h-28v0.7h5.4v33.5h-5.4v0.7h29.8v-10.7H276.2z"/>
	<circle fill="#010101" cx="244.8" cy="104.4" r="0.8"/>
</g>
<rect x="198.3" y="175.7" fill="#010101" width="78.4" height="0.7"/>
<rect x="2.1" y="175.7" fill="#010101" width="78.7" height="0.7"/>
<path fill="#010101" d="M89.4,175.4c-0.1-0.2-0.2-0.4-0.3-0.6c-0.1-0.2-0.3-0.3-0.5-0.4c-0.2-0.1-0.5-0.2-0.8-0.2
	c-0.2,0-0.5,0.1-0.7,0.2c-0.2,0.1-0.4,0.2-0.6,0.4c-0.2,0.2-0.4,0.3-0.5,0.5c-0.2,0.2-0.3,0.4-0.4,0.6l0,0l2.1-5.7h-2.1l-0.3,0.1
	h1.1l-2.5,7.2c-0.1,0.2-0.1,0.4-0.2,0.6s-0.1,0.5-0.1,0.6c0,0.3,0.1,0.5,0.2,0.7s0.2,0.4,0.4,0.5c0.2,0.1,0.3,0.2,0.5,0.3
	c0.2,0.1,0.4,0.1,0.5,0.1c0.3,0,0.6-0.1,0.9-0.2c0.3-0.1,0.6-0.3,1-0.5c0.3-0.2,0.6-0.4,0.9-0.7c0.3-0.3,0.6-0.6,0.8-0.9
	c0.2-0.3,0.4-0.7,0.6-1c0.1-0.4,0.2-0.7,0.2-1C89.5,175.8,89.5,175.6,89.4,175.4z M88.6,176.3c-0.1,0.4-0.2,0.7-0.4,1
	s-0.4,0.7-0.6,1c-0.2,0.4-0.5,0.7-0.7,0.9c-0.3,0.3-0.5,0.5-0.8,0.7s-0.6,0.2-0.8,0.2c-0.6,0-0.9-0.3-0.9-0.9c0-0.3,0-0.7,0.1-1
	c0.1-0.4,0.2-0.7,0.4-1s0.4-0.7,0.6-1c0.2-0.3,0.5-0.7,0.7-0.9c0.2-0.3,0.5-0.5,0.8-0.6c0.3-0.2,0.5-0.2,0.8-0.2s0.5,0.1,0.7,0.2
	c0.2,0.1,0.2,0.4,0.2,0.7C88.8,175.6,88.7,175.9,88.6,176.3z"/>
<g>
	<path fill="#010101" d="M90.6,176l0.2,0.1c0-0.1,0.1-0.3,0.1-0.5c0.1-0.2,0.1-0.4,0.2-0.5c0.1-0.2,0.2-0.3,0.3-0.4
		c0.1-0.1,0.3-0.2,0.4-0.2s0.2,0,0.2,0.1c0.1,0.1,0.1,0.3,0.2,0.5c0.1,0.3,0.1,0.6,0.1,1c0,0.5,0.1,1,0.1,1.7c0,0.7-0.1,1.3-0.2,2
		c-0.2,0.7-0.3,1.2-0.6,1.8c-0.2,0.5-0.5,1-0.8,1.2s-0.6,0.5-0.8,0.5c-0.1,0-0.3,0-0.3-0.1c-0.1-0.1-0.1-0.1-0.1-0.2
		c0-0.1,0-0.2,0-0.2c0-0.1,0-0.1,0-0.1v-0.1c0,0,0-0.1,0-0.2c0-0.1,0-0.2-0.1-0.3s-0.2-0.1-0.3-0.1c-0.2,0-0.3,0-0.4,0.1
		c-0.1,0.1-0.2,0.2-0.2,0.5s0.1,0.5,0.3,0.7c0.2,0.2,0.5,0.3,0.9,0.3c0.2,0,0.5-0.1,0.7-0.2c0.2-0.1,0.4-0.3,0.6-0.5
		c0.2-0.2,0.4-0.5,0.5-0.7c0.2-0.3,0.3-0.6,0.5-0.9l0.8-1.4l2.4-4.4c0.2-0.4,0.4-0.6,0.5-0.8c0.1-0.2,0.2-0.2,0.4-0.2
		c0.1,0,0.2,0,0.2,0.2c0,0.1,0,0.2-0.1,0.2c-0.1,0.1-0.1,0.1-0.1,0.2c0,0.2,0.1,0.3,0.3,0.3c0.2,0,0.3-0.1,0.4-0.2
		c0.1-0.1,0.2-0.3,0.2-0.4c0-0.1,0-0.3-0.1-0.4c-0.1-0.1-0.2-0.2-0.5-0.2c-0.2,0-0.3,0-0.5,0.1c-0.1,0.1-0.3,0.2-0.4,0.3
		c-0.1,0.1-0.2,0.2-0.3,0.4c-0.1,0.1-0.2,0.3-0.2,0.4l-1.8,3.4l0,0c0.1-0.3,0.1-0.7,0.2-1c0.1-0.4,0.1-1,0.1-1.5
		c0-0.2,0-0.5-0.1-0.7c-0.1-0.3-0.1-0.5-0.3-0.7c-0.1-0.2-0.3-0.4-0.5-0.6s-0.4-0.2-0.7-0.2c-0.2,0-0.5,0.1-0.6,0.2
		c-0.2,0.1-0.3,0.3-0.4,0.5s-0.2,0.4-0.2,0.6C90.7,175.7,90.7,175.8,90.6,176z"/>
</g>
<g>
	<path fill="#010101" d="M103.6,171l-3.2,9H99l-0.1,0.2h4.1l0.1-0.2h-1.5l1.6-4.6h1.3c0.5,0,0.8,0.1,1,0.3c0.2,0.2,0.3,0.4,0.3,0.8
		c0,0.2,0,0.4-0.1,0.6c0,0.2-0.1,0.3-0.1,0.4h0.2l1.3-3.8h-0.2c0,0.1-0.1,0.2-0.2,0.4c-0.1,0.2-0.2,0.4-0.4,0.6
		c-0.2,0.2-0.3,0.4-0.6,0.5c-0.2,0.1-0.5,0.2-0.8,0.2h-1.9l1.5-4.3h2.9c0.4,0,0.7,0.1,0.9,0.3c0.1,0.2,0.2,0.4,0.2,0.8
		c0,0.2,0,0.4,0,0.6s-0.1,0.4-0.1,0.5h0.2l0.8-2.3H102l-0.1,0.2H103.6z"/>
</g>
<path fill="#010101" d="M114.9,179.1c-0.1,0.1-0.2,0.3-0.3,0.4c-0.1,0.1-0.2,0.3-0.4,0.4c-0.1,0.1-0.3,0.2-0.5,0.2s-0.3-0.1-0.3-0.4
	c0-0.2,0-0.4,0.1-0.6c0.1-0.2,0.1-0.5,0.2-0.7l1.4-4h-1l-0.2,0.7l0,0c0-0.3-0.1-0.5-0.3-0.6c-0.2-0.2-0.4-0.2-0.7-0.2
	c-0.2,0-0.5,0.1-0.8,0.2c-0.3,0.1-0.6,0.3-0.9,0.5s-0.6,0.5-0.9,0.7c-0.3,0.3-0.6,0.6-0.8,0.9c-0.2,0.3-0.4,0.7-0.6,1
	c-0.1,0.4-0.2,0.7-0.2,1c0,0.3,0,0.6,0.1,0.8c0.1,0.2,0.2,0.4,0.3,0.5c0.1,0.1,0.3,0.2,0.5,0.3c0.2,0.1,0.4,0.1,0.6,0.1
	c0.3,0,0.6-0.1,0.8-0.2c0.2-0.1,0.5-0.2,0.7-0.4s0.4-0.3,0.6-0.5s0.3-0.4,0.4-0.5l0,0c0,0.1-0.1,0.3-0.1,0.4c0,0.2,0,0.3,0,0.3
	c0,0.6,0.3,0.8,0.9,0.8c0.3,0,0.5-0.1,0.7-0.2c0.2-0.1,0.4-0.2,0.5-0.4c0.1-0.1,0.3-0.3,0.4-0.5s0.2-0.3,0.2-0.4l-0.2-0.1
	C115,178.9,115,179,114.9,179.1z M112.7,178.6c-0.2,0.2-0.4,0.5-0.6,0.7c-0.2,0.2-0.5,0.4-0.8,0.6s-0.6,0.2-0.8,0.2
	c-0.3,0-0.5-0.1-0.6-0.3c-0.1-0.2-0.2-0.4-0.2-0.7c0-0.3,0-0.6,0.1-0.9s0.2-0.7,0.4-1c0.2-0.4,0.3-0.7,0.5-1s0.4-0.7,0.7-0.9
	c0.3-0.3,0.5-0.5,0.8-0.7c0.3-0.2,0.6-0.3,0.9-0.3c0.2,0,0.3,0,0.4,0.1c0.1,0.1,0.2,0.1,0.2,0.2c0.1,0.1,0.1,0.2,0.1,0.3
	s0,0.2,0,0.3s0,0.2,0,0.3s-0.1,0.3-0.2,0.6l-0.7,1.9C112.9,178.3,112.8,178.5,112.7,178.6z"/>
<g>
	<path fill="#010101" d="M118,174.7l-1.3,3.9c-0.1,0.2-0.1,0.3-0.2,0.5c-0.1,0.2-0.1,0.4-0.1,0.5c0,0.3,0.1,0.5,0.3,0.6
		c0.2,0.1,0.4,0.2,0.7,0.2c0.3,0,0.5-0.1,0.7-0.2c0.2-0.1,0.4-0.2,0.5-0.4c0.1-0.2,0.2-0.3,0.3-0.5c0.1-0.2,0.1-0.3,0.2-0.3
		l-0.2-0.1c0,0.1-0.1,0.2-0.2,0.3s-0.2,0.3-0.3,0.4c-0.1,0.1-0.3,0.3-0.4,0.4c-0.1,0.1-0.3,0.2-0.4,0.2s-0.2,0-0.3-0.1
		c-0.1-0.1-0.1-0.2-0.1-0.3c0-0.1,0-0.3,0.1-0.4c0-0.1,0.1-0.3,0.1-0.4l1.5-4.5h-2l-0.1,0.2C116.8,174.7,118,174.7,118,174.7z"/>
	<path fill="#010101" d="M118.8,171.3c0,0.2,0.1,0.3,0.2,0.5c0.1,0.1,0.3,0.2,0.5,0.2c0.2,0,0.3-0.1,0.5-0.2
		c0.1-0.1,0.2-0.3,0.2-0.5c0-0.2-0.1-0.3-0.2-0.5c-0.1-0.1-0.3-0.2-0.5-0.2c-0.2,0-0.3,0.1-0.5,0.2
		C118.9,171,118.8,171.1,118.8,171.3z"/>
</g>
<g>
	<path fill="#010101" d="M121.4,176.1l-1.4,4.1h1l1-2.7c0.1-0.4,0.3-0.7,0.5-1c0.2-0.4,0.4-0.7,0.6-1c0.2-0.3,0.5-0.5,0.7-0.7
		s0.4-0.3,0.6-0.3c0.1,0,0.2,0,0.3,0.1c0.1,0.1,0.1,0.1,0.1,0.2c0,0.1,0,0.2-0.1,0.2c0,0.1-0.1,0.1-0.1,0.2l-0.1,0.1
		c0,0.1-0.1,0.1-0.1,0.2c0,0.1,0,0.2,0.1,0.3c0.1,0.1,0.2,0.1,0.3,0.1s0.2,0,0.2,0c0.1,0,0.2-0.1,0.2-0.1c0.1-0.1,0.1-0.1,0.2-0.2
		c0.1-0.1,0.1-0.2,0.1-0.4c0-0.2-0.1-0.4-0.3-0.6s-0.4-0.3-0.8-0.3c-0.2,0-0.5,0.1-0.7,0.2c-0.2,0.1-0.4,0.3-0.6,0.5
		s-0.3,0.4-0.5,0.6c-0.1,0.2-0.3,0.4-0.3,0.5l0,0c0.1-0.3,0.2-0.6,0.3-0.9c0.1-0.3,0.2-0.5,0.2-0.7h-2l-0.1,0.2h1.1
		c-0.1,0.2-0.1,0.5-0.2,0.7C121.6,175.6,121.5,175.8,121.4,176.1z"/>
</g>
<g>
	<path fill="#010101" d="M129.8,170.1h-2.1l-0.1,0.2h1.1l-2.9,8.2c-0.1,0.2-0.1,0.3-0.2,0.5c-0.1,0.2-0.1,0.4-0.1,0.5
		c0,0.3,0.1,0.5,0.3,0.6c0.2,0.1,0.4,0.2,0.7,0.2s0.5-0.1,0.7-0.2c0.2-0.1,0.4-0.2,0.5-0.4c0.1-0.2,0.2-0.3,0.3-0.5s0.1-0.3,0.2-0.3
		l-0.2-0.1c0,0.1-0.1,0.2-0.2,0.3c-0.1,0.1-0.2,0.3-0.3,0.4c-0.1,0.1-0.3,0.3-0.4,0.4c-0.1,0.1-0.3,0.2-0.4,0.2
		c-0.1,0-0.2,0-0.3-0.1c-0.1-0.1-0.1-0.2-0.1-0.3c0-0.1,0-0.3,0.1-0.4c0-0.1,0.1-0.3,0.1-0.4L129.8,170.1z"/>
</g>
<g>
	<path fill="#010101" d="M131,174.7l-1.3,3.9c-0.1,0.2-0.1,0.3-0.2,0.5c-0.1,0.2-0.1,0.4-0.1,0.5c0,0.3,0.1,0.5,0.3,0.6
		c0.2,0.1,0.4,0.2,0.7,0.2s0.5-0.1,0.7-0.2c0.2-0.1,0.4-0.2,0.5-0.4c0.1-0.2,0.2-0.3,0.3-0.5s0.1-0.3,0.2-0.3l-0.2-0.1
		c0,0.1-0.1,0.2-0.2,0.3s-0.2,0.3-0.3,0.4c-0.1,0.1-0.3,0.3-0.4,0.4c-0.1,0.1-0.3,0.2-0.4,0.2c-0.1,0-0.2,0-0.3-0.1
		c-0.1-0.1-0.1-0.2-0.1-0.3c0-0.1,0-0.3,0.1-0.4c0-0.1,0.1-0.3,0.1-0.4l1.5-4.5h-2.1l-0.1,0.2C129.7,174.7,131,174.7,131,174.7z"/>
	<path fill="#010101" d="M131.9,171.3c0,0.2,0.1,0.3,0.2,0.5c0.1,0.1,0.3,0.2,0.5,0.2s0.3-0.1,0.5-0.2c0.1-0.1,0.2-0.3,0.2-0.5
		c0-0.2-0.1-0.3-0.2-0.5c-0.1-0.1-0.3-0.2-0.5-0.2s-0.3,0.1-0.5,0.2C131.9,171,131.9,171.1,131.9,171.3z"/>
</g>
<path fill="#010101" d="M138.2,174.8c-0.1-0.1-0.2-0.2-0.4-0.3c-0.1-0.1-0.3-0.1-0.5-0.2c-0.2,0-0.4-0.1-0.6-0.1
	c-0.5,0-1,0.1-1.3,0.4c-0.5,0.3-0.9,0.6-1.1,1c-0.4,0.4-0.7,0.9-0.9,1.3s-0.3,1-0.3,1.3c0,0.2,0,0.5,0.1,0.7s0.2,0.5,0.4,0.7
	s0.4,0.4,0.7,0.5c0.3,0.1,0.6,0.2,1,0.2c0.4,0,0.7-0.1,1-0.2c0.3-0.1,0.5-0.3,0.7-0.5s0.3-0.3,0.5-0.5c0.1-0.2,0.2-0.3,0.2-0.4
	l-0.2-0.1c-0.1,0.1-0.2,0.2-0.3,0.4s-0.3,0.3-0.4,0.5c-0.2,0.2-0.4,0.3-0.6,0.4c-0.2,0.1-0.5,0.2-0.8,0.2c-0.4,0-0.7-0.1-1-0.4
	c-0.3-0.2-0.4-0.6-0.4-1c0-0.3,0-0.6,0.1-0.9s0.2-0.6,0.3-0.9c0.1,0,0.2,0,0.4,0c0.1,0,0.3,0,0.5,0c0.1,0,0.2,0,0.4,0
	s0.4-0.1,0.7-0.1c0.2-0.1,0.5-0.1,0.7-0.2c0.3-0.1,0.5-0.2,0.7-0.3c0.2-0.1,0.4-0.3,0.5-0.5c0.1-0.2,0.2-0.4,0.2-0.7
	C138.3,175.1,138.3,174.9,138.2,174.8z M137.2,175.8c-0.1,0.2-0.3,0.4-0.5,0.6s-0.5,0.3-0.8,0.4c-0.3,0.1-0.6,0.2-0.9,0.2
	s-0.5,0-0.7-0.1c0.1-0.2,0.2-0.5,0.4-0.8c0.2-0.3,0.3-0.5,0.6-0.8c0.2-0.2,0.4-0.5,0.7-0.6c0.3-0.2,0.5-0.2,0.8-0.2s0.4,0.1,0.6,0.2
	c0.1,0.1,0.2,0.3,0.2,0.5C137.4,175.3,137.4,175.5,137.2,175.8z"/>
<g>
	<path fill="#010101" d="M145.6,171l-3.2,9H141l-0.1,0.2h7.7l1-2.6h-0.2c-0.1,0.1-0.2,0.3-0.4,0.6c-0.2,0.3-0.4,0.6-0.6,0.8
		c-0.2,0.3-0.5,0.5-0.8,0.7s-0.7,0.3-1,0.3h-3l1.7-4.8h0.9c0.4,0,0.6,0.1,0.8,0.3s0.3,0.4,0.3,0.8c0,0.2,0,0.4-0.1,0.6
		c0,0.2-0.1,0.3-0.1,0.5h0.2l1.4-3.8h-0.2c0,0.1-0.1,0.2-0.2,0.4c-0.1,0.2-0.2,0.4-0.4,0.6s-0.4,0.4-0.6,0.5
		c-0.2,0.2-0.5,0.2-0.8,0.2h-1.2l1.4-4.1h2.8c0.4,0,0.7,0.1,0.9,0.3c0.1,0.2,0.2,0.5,0.2,0.8c0,0.2,0,0.4-0.1,0.6
		c0,0.2-0.1,0.3-0.1,0.4h0.2l0.8-2.3h-7.3l-0.1,0.2L145.6,171L145.6,171z"/>
</g>
<g>
	<path fill="#010101" d="M152,175.8l0.2,0.1c0-0.1,0.1-0.2,0.2-0.4c0.1-0.2,0.2-0.3,0.4-0.5c0.2-0.2,0.3-0.3,0.5-0.4
		c0.2-0.1,0.4-0.2,0.6-0.2c0.3,0,0.5,0.1,0.6,0.3c0.1,0.2,0.2,0.4,0.2,0.7c0,0.2,0,0.4-0.1,0.7c-0.1,0.3-0.1,0.6-0.2,0.9
		c-0.1,0.3-0.2,0.6-0.3,0.9s-0.2,0.5-0.3,0.7c-0.2,0.4-0.3,0.7-0.5,0.9c-0.2,0.2-0.3,0.4-0.4,0.5c-0.1,0.1-0.3,0.2-0.4,0.2
		c-0.1,0-0.2,0.1-0.4,0.1s-0.4,0-0.5-0.1c-0.1-0.1-0.2-0.2-0.2-0.3s0-0.2,0.1-0.3c0-0.1,0.1-0.1,0.1-0.2c0-0.1,0.1-0.1,0.1-0.2
		c0-0.1,0.1-0.1,0.1-0.2s0-0.2-0.1-0.3c-0.1-0.1-0.2-0.1-0.3-0.1c-0.2,0-0.4,0.1-0.5,0.2c-0.1,0.1-0.2,0.3-0.2,0.6
		c0,0.1,0,0.2,0.1,0.4c0.1,0.2,0.1,0.2,0.2,0.3c0.1,0.1,0.2,0.2,0.4,0.2c0.2,0.1,0.4,0.1,0.6,0.1c0.2,0,0.5,0,0.7-0.1
		c0.2-0.1,0.4-0.2,0.5-0.3c0.2-0.1,0.3-0.2,0.5-0.4c0.1-0.1,0.3-0.3,0.4-0.4c0,0.1,0.1,0.2,0.1,0.4c0.1,0.1,0.1,0.3,0.2,0.4
		c0.1,0.1,0.2,0.2,0.4,0.3s0.3,0.1,0.6,0.1c0.3,0,0.6-0.1,0.8-0.2c0.2-0.1,0.4-0.3,0.6-0.5c0.2-0.2,0.3-0.4,0.4-0.5
		c0.1-0.2,0.2-0.3,0.2-0.4l-0.2-0.1c-0.1,0.1-0.2,0.3-0.3,0.4c-0.1,0.1-0.2,0.3-0.4,0.5c-0.1,0.2-0.3,0.3-0.5,0.4
		c-0.2,0.1-0.4,0.2-0.6,0.2s-0.4-0.1-0.6-0.3c-0.1-0.2-0.2-0.4-0.2-0.8c0-0.1,0-0.4,0.1-0.7s0.1-0.6,0.3-1c0.1-0.4,0.2-0.7,0.4-1
		c0.2-0.4,0.3-0.7,0.5-1s0.4-0.6,0.6-0.8c0.2-0.2,0.4-0.3,0.7-0.3c0.1,0,0.2,0,0.3,0.1c0.1,0.1,0.2,0.2,0.2,0.3s0,0.2-0.1,0.3
		c0,0.1-0.1,0.1-0.1,0.2c0,0.1-0.1,0.1-0.1,0.2c0,0.1-0.1,0.2-0.1,0.3s0,0.2,0.1,0.3c0.1,0.1,0.2,0.1,0.3,0.1c0.3,0,0.5-0.1,0.6-0.2
		c0.1-0.2,0.2-0.3,0.2-0.5c0-0.3-0.1-0.5-0.3-0.8c-0.2-0.2-0.5-0.3-0.9-0.3c-0.2,0-0.5,0-0.7,0.1c-0.2,0.1-0.4,0.2-0.6,0.3
		c-0.2,0.1-0.3,0.3-0.4,0.4c-0.1,0.1-0.2,0.3-0.3,0.3c0-0.1-0.1-0.2-0.1-0.4c-0.1-0.1-0.1-0.3-0.2-0.4c-0.1-0.1-0.2-0.2-0.4-0.3
		c-0.2-0.1-0.4-0.1-0.6-0.1c-0.3,0-0.6,0.1-0.8,0.2c-0.2,0.1-0.4,0.3-0.6,0.5s-0.3,0.4-0.4,0.5C152.1,175.6,152,175.8,152,175.8z"/>
</g>
<g>
	<path fill="#010101" d="M160.5,174.7l-1.3,3.9c-0.1,0.2-0.1,0.3-0.2,0.5c-0.1,0.2-0.1,0.4-0.1,0.5c0,0.3,0.1,0.5,0.3,0.6
		c0.2,0.1,0.4,0.2,0.7,0.2s0.5-0.1,0.7-0.2c0.2-0.1,0.4-0.2,0.5-0.4c0.1-0.2,0.2-0.3,0.3-0.5s0.1-0.3,0.2-0.3l-0.2-0.1
		c0,0.1-0.1,0.2-0.2,0.3s-0.2,0.3-0.3,0.4c-0.1,0.1-0.3,0.3-0.4,0.4c-0.1,0.1-0.3,0.2-0.4,0.2c-0.1,0-0.2,0-0.3-0.1
		c-0.1-0.1-0.1-0.2-0.1-0.3c0-0.1,0-0.3,0.1-0.4c0-0.1,0.1-0.3,0.1-0.4l1.5-4.5h-2.1l-0.1,0.2C159.2,174.7,160.5,174.7,160.5,174.7z
		"/>
	<path fill="#010101" d="M161.4,171.3c0,0.2,0.1,0.3,0.2,0.5c0.1,0.1,0.3,0.2,0.5,0.2s0.3-0.1,0.5-0.2c0.1-0.1,0.2-0.3,0.2-0.5
		c0-0.2-0.1-0.3-0.2-0.5c-0.1-0.1-0.3-0.2-0.5-0.2s-0.3,0.1-0.5,0.2C161.4,171,161.4,171.1,161.4,171.3z"/>
</g>
<g>
	<path fill="#010101" d="M164.4,174.7l-1.9,5.5h1l1-2.8c0.1-0.4,0.3-0.8,0.6-1.1c0.2-0.4,0.5-0.7,0.8-0.9c0.3-0.3,0.5-0.5,0.8-0.6
		c0.3-0.2,0.5-0.2,0.7-0.2s0.3,0.1,0.4,0.2c0.1,0.1,0.1,0.2,0.1,0.3c0,0.1,0,0.3-0.1,0.6l-1.1,3.1c0,0.1-0.1,0.3-0.1,0.4
		c0,0.1,0,0.3,0,0.4c0,0.3,0.1,0.5,0.3,0.6s0.5,0.2,0.7,0.2c0.3,0,0.5-0.1,0.7-0.2s0.4-0.2,0.5-0.4c0.1-0.1,0.2-0.3,0.3-0.4
		c0.1-0.2,0.1-0.3,0.2-0.4l-0.2-0.1c0,0.1-0.1,0.2-0.2,0.4c-0.1,0.1-0.2,0.3-0.3,0.4c-0.1,0.1-0.2,0.2-0.4,0.3
		c-0.1,0.1-0.3,0.1-0.5,0.1c-0.1,0-0.2,0-0.3-0.1c0-0.1-0.1-0.2-0.1-0.3c0-0.1,0-0.3,0.1-0.4c0-0.2,0.1-0.3,0.2-0.5l0.9-2.5
		c0.1-0.2,0.1-0.4,0.2-0.5c0.1-0.2,0.1-0.3,0.1-0.5c0-0.3-0.1-0.6-0.3-0.8s-0.5-0.3-0.9-0.3c-0.8,0-1.5,0.6-2.4,1.7l0,0l0.6-1.6
		h-2.1l-0.1,0.2C163.3,174.7,164.4,174.7,164.4,174.7z"/>
</g>
<g>
	<path fill="#010101" d="M172,173.1l-0.5,1.3h-1.1l-0.1,0.2h1.1l-1.3,3.6c-0.1,0.2-0.1,0.4-0.2,0.6c-0.1,0.2-0.1,0.4-0.1,0.6
		s0.1,0.4,0.3,0.6s0.4,0.3,0.8,0.3c0.3,0,0.5-0.1,0.7-0.2c0.2-0.1,0.4-0.2,0.5-0.4s0.2-0.3,0.3-0.5s0.1-0.3,0.2-0.3l-0.2-0.1
		c0,0.1-0.1,0.2-0.2,0.3c-0.1,0.1-0.2,0.3-0.3,0.4c-0.1,0.1-0.3,0.3-0.4,0.4c-0.1,0.1-0.3,0.2-0.5,0.2s-0.3,0-0.3-0.1
		c-0.1-0.1-0.1-0.2-0.1-0.3s0-0.3,0.1-0.4c0-0.1,0.1-0.3,0.1-0.4l1.5-4.2h1.4l0.1-0.2h-1.4l0.5-1.3L172,173.1L172,173.1z"/>
</g>
<path fill="#010101" d="M179.7,179.1c-0.1,0.1-0.2,0.3-0.3,0.4c-0.1,0.1-0.2,0.3-0.4,0.4c-0.1,0.1-0.3,0.2-0.5,0.2s-0.3-0.1-0.3-0.4
	c0-0.2,0-0.4,0.1-0.6s0.1-0.5,0.2-0.7l1.4-4h-1l-0.2,0.7l0,0c0-0.3-0.1-0.5-0.3-0.6c-0.2-0.2-0.4-0.2-0.7-0.2
	c-0.2,0-0.5,0.1-0.8,0.2c-0.3,0.1-0.6,0.3-0.9,0.5c-0.3,0.2-0.6,0.5-0.9,0.7c-0.3,0.3-0.6,0.6-0.8,0.9s-0.4,0.7-0.6,1
	c-0.1,0.4-0.2,0.7-0.2,1c0,0.3,0,0.6,0.1,0.8c0.1,0.2,0.2,0.4,0.3,0.5c0.1,0.1,0.3,0.2,0.5,0.3c0.2,0.1,0.4,0.1,0.6,0.1
	c0.3,0,0.6-0.1,0.8-0.2c0.2-0.1,0.5-0.2,0.7-0.4s0.4-0.3,0.6-0.5c0.2-0.2,0.3-0.4,0.4-0.5l0,0c0,0.1-0.1,0.3-0.1,0.4
	c0,0.2,0,0.3,0,0.3c0,0.6,0.3,0.8,0.9,0.8c0.3,0,0.5-0.1,0.7-0.2c0.2-0.1,0.4-0.2,0.5-0.4c0.1-0.1,0.3-0.3,0.4-0.5
	c0.1-0.2,0.2-0.3,0.2-0.4l-0.2-0.1C179.8,178.9,179.7,179,179.7,179.1z M177.4,178.6c-0.2,0.2-0.4,0.5-0.6,0.7
	c-0.2,0.2-0.5,0.4-0.8,0.6s-0.6,0.2-0.8,0.2c-0.3,0-0.5-0.1-0.6-0.3c-0.1-0.2-0.2-0.4-0.2-0.7c0-0.3,0-0.6,0.1-0.9s0.2-0.7,0.4-1
	s0.3-0.7,0.5-1s0.4-0.7,0.7-0.9c0.3-0.3,0.5-0.5,0.8-0.7c0.3-0.2,0.6-0.3,0.9-0.3c0.2,0,0.3,0,0.4,0.1c0.1,0.1,0.2,0.1,0.2,0.2
	c0.1,0.1,0.1,0.2,0.1,0.3s0,0.2,0,0.3s0,0.2,0,0.3s-0.1,0.3-0.2,0.6l-0.7,1.9C177.7,178.3,177.6,178.5,177.4,178.6z"/>
<g>
	<path fill="#010101" d="M182.4,176.1l-1.4,4.1h1l1-2.7c0.1-0.4,0.3-0.7,0.5-1c0.2-0.4,0.4-0.7,0.6-1c0.2-0.3,0.5-0.5,0.7-0.7
		s0.4-0.3,0.6-0.3c0.1,0,0.2,0,0.3,0.1c0.1,0.1,0.1,0.1,0.1,0.2c0,0.1,0,0.2-0.1,0.2c0,0.1-0.1,0.1-0.1,0.2l-0.1,0.1
		c0,0.1-0.1,0.1-0.1,0.2c0,0.1,0,0.2,0.1,0.3c0.1,0.1,0.2,0.1,0.3,0.1s0.2,0,0.2,0c0.1,0,0.2-0.1,0.2-0.1c0.1-0.1,0.1-0.1,0.2-0.2
		c0.1-0.1,0.1-0.2,0.1-0.4c0-0.2-0.1-0.4-0.3-0.6s-0.4-0.3-0.8-0.3c-0.2,0-0.5,0.1-0.7,0.2c-0.2,0.1-0.4,0.3-0.6,0.5
		s-0.3,0.4-0.5,0.6c-0.1,0.2-0.3,0.4-0.3,0.5l0,0c0.1-0.3,0.2-0.6,0.3-0.9s0.2-0.5,0.2-0.7h-2l-0.1,0.2h1.1
		c-0.1,0.2-0.1,0.5-0.2,0.7C182.5,175.6,182.5,175.8,182.4,176.1z"/>
</g>
<g>
	<path fill="#010101" d="M188.2,174.7l-1.3,3.9c-0.1,0.2-0.1,0.3-0.2,0.5c-0.1,0.2-0.1,0.4-0.1,0.5c0,0.3,0.1,0.5,0.3,0.6
		c0.2,0.1,0.4,0.2,0.7,0.2s0.5-0.1,0.7-0.2c0.2-0.1,0.4-0.2,0.5-0.4c0.1-0.2,0.2-0.3,0.3-0.5s0.1-0.3,0.2-0.3l-0.2-0.1
		c0,0.1-0.1,0.2-0.2,0.3s-0.2,0.3-0.3,0.4c-0.1,0.1-0.3,0.3-0.4,0.4c-0.1,0.1-0.3,0.2-0.4,0.2c-0.1,0-0.2,0-0.3-0.1
		c-0.1-0.1-0.1-0.2-0.1-0.3c0-0.1,0-0.3,0.1-0.4c0-0.1,0.1-0.3,0.1-0.4l1.5-4.5H187l-0.1,0.2C186.9,174.7,188.2,174.7,188.2,174.7z"
		/>
	<path fill="#010101" d="M189,171.3c0,0.2,0.1,0.3,0.2,0.5c0.1,0.1,0.3,0.2,0.5,0.2s0.3-0.1,0.5-0.2c0.1-0.1,0.2-0.3,0.2-0.5
		c0-0.2-0.1-0.3-0.2-0.5c-0.1-0.1-0.3-0.2-0.5-0.2s-0.3,0.1-0.5,0.2C189.1,171,189,171.1,189,171.3z"/>
</g>
<g>
	<path fill="#010101" d="M191.6,177.2l0.7,0.9c0.1,0.2,0.2,0.4,0.3,0.5c0.1,0.1,0.1,0.3,0.1,0.5c0,0.1,0,0.3-0.1,0.4
		c-0.1,0.1-0.2,0.3-0.3,0.4c-0.1,0.1-0.3,0.2-0.5,0.3s-0.4,0.1-0.6,0.1c-0.2,0-0.4,0-0.6-0.1c-0.1-0.1-0.2-0.2-0.2-0.5
		c0-0.1,0-0.2,0.1-0.3c0-0.1,0.1-0.2,0.1-0.3c0-0.1,0-0.2-0.1-0.2c-0.1-0.1-0.1-0.1-0.2-0.1c-0.2,0-0.4,0.1-0.5,0.2
		c-0.1,0.1-0.2,0.3-0.2,0.5s0,0.3,0.1,0.5s0.2,0.2,0.4,0.3c0.2,0.1,0.3,0.2,0.5,0.2s0.4,0.1,0.6,0.1c0.2,0,0.5,0,0.8-0.1
		c0.3-0.1,0.5-0.2,0.8-0.4c0.2-0.2,0.4-0.4,0.6-0.6c0.2-0.2,0.2-0.5,0.2-0.8c0-0.2,0-0.3-0.1-0.5c0-0.2-0.1-0.3-0.2-0.4l-0.8-1
		c-0.2-0.2-0.3-0.4-0.4-0.6c-0.1-0.2-0.1-0.3-0.1-0.5c0-0.1,0-0.3,0.1-0.4c0.1-0.1,0.1-0.3,0.2-0.4c0.1-0.1,0.2-0.2,0.4-0.3
		s0.4-0.1,0.6-0.1c0.3,0,0.5,0.1,0.5,0.4c0,0.1,0,0.2-0.1,0.2s-0.1,0.2-0.1,0.3c0,0.1,0,0.2,0.1,0.3c0.1,0.1,0.2,0.1,0.3,0.1
		c0.4,0,0.6-0.2,0.6-0.6c0-0.3-0.1-0.5-0.4-0.7c-0.2-0.2-0.5-0.3-0.9-0.3c-0.3,0-0.6,0.1-0.9,0.2c-0.3,0.1-0.5,0.3-0.7,0.4
		c-0.2,0.2-0.3,0.4-0.5,0.6c-0.1,0.2-0.2,0.4-0.2,0.7c0,0.2,0.1,0.5,0.2,0.6C191.4,176.8,191.5,177,191.6,177.2z"/>
</g>
</svg>
