<?xml version="1.0" encoding="utf-8"?>
<!-- Generator: Adobe Illustrator 17.1.0, SVG Export Plug-In . SVG Version: 6.00 Build 0)  -->
<!DOCTYPE svg PUBLIC "-//W3C//DTD SVG 1.1//EN" "http://www.w3.org/Graphics/SVG/1.1/DTD/svg11.dtd">
<svg version="1.1" id="Layer_1" xmlns="http://www.w3.org/2000/svg" xmlns:xlink="http://www.w3.org/1999/xlink" x="0px" y="0px"
	 viewBox="0 0 25.8 26.5" enable-background="new 0 0 25.8 26.5" xml:space="preserve">
<g>
	<path fill="#C9C9C9" d="M25.8,13.2c0,1.8,0,3.7,0,5.5c0,1-0.1,2.1-0.6,3C24,24.4,22,26,19.1,26.4c-0.3,0.1-0.7,0.1-1,0.1
		c-3.5,0-7,0-10.5,0c-1.5,0-3-0.4-4.2-1.3c-2-1.3-3.1-3.2-3.3-5.5c0-0.2,0-0.4,0-0.6c0-3.9,0-7.8,0-11.7c0-2.9,1.9-5.7,4.7-6.8
		C5.6,0.2,6.6,0,7.6,0c3.5,0,7.1,0,10.6,0c3.8,0,6.9,2.7,7.5,6.5c0.1,0.4,0.1,0.8,0.1,1.2C25.8,9.5,25.8,11.4,25.8,13.2
		C25.8,13.2,25.8,13.2,25.8,13.2z M1.9,13.2C1.9,13.2,1.9,13.2,1.9,13.2c0,1.8,0,3.7,0,5.5c0,0.3,0,0.6,0.1,1
		c0.3,2.7,2.7,4.8,5.4,4.9c3.6,0,7.3,0,10.9,0c3,0,5.5-2.5,5.5-5.6c0-3.8,0-7.6,0-11.4c0-0.2,0-0.3,0-0.5c-0.2-2.8-2.6-5.1-5.5-5.1
		c-3.6,0-7.3,0-10.9,0c-1.2,0-2.3,0.4-3.3,1.1C2.7,4.2,1.9,5.8,1.9,7.7C1.9,9.5,1.9,11.4,1.9,13.2z"/>
	<path fill="#C9C9C9" d="M12.9,20.2c-3.5,0-6.6-2.7-7-6.2c-0.4-3,1.2-5.8,3.8-7.2c1.1-0.6,2.3-0.8,3.5-0.7c1.3,0.1,2.5,0.4,3.6,1.1
		c1.6,1,2.5,2.4,2.9,4.2c0.5,2.4,0,4.5-1.6,6.4C16.8,19.4,14.9,20.2,12.9,20.2z M12.9,17.9c1.1,0,2.2-0.4,3-1.1
		c1.4-1.3,1.9-2.9,1.6-4.7c-0.2-1.2-0.8-2.2-1.8-2.8c-1.2-0.7-2.4-0.9-3.7-0.6C9.7,9,8.1,11.1,8.2,13.4
		C8.3,15.9,10.4,17.9,12.9,17.9z"/>
	<path fill="#C9C9C9" d="M20.1,7.6c-0.9,0-1.6-0.7-1.6-1.6c0-0.9,0.7-1.6,1.6-1.6c0.9,0,1.6,0.7,1.6,1.6C21.7,6.9,21,7.6,20.1,7.6z"
		/>
</g>
</svg>
